<?xml version="1.0" encoding="utf-8"?>
<!-- Generator: Adobe Illustrator 16.0.0, SVG Export Plug-In . SVG Version: 6.00 Build 0)  -->
<!DOCTYPE svg PUBLIC "-//W3C//DTD SVG 1.1//EN" "http://www.w3.org/Graphics/SVG/1.1/DTD/svg11.dtd">
<svg version="1.1" id="Layer_1" xmlns="http://www.w3.org/2000/svg" xmlns:xlink="http://www.w3.org/1999/xlink" x="0px" y="0px"
	 width="617.312px" height="326.581px" viewBox="0 0 617.312 326.581" enable-background="new 0 0 617.312 326.581"
	 xml:space="preserve">
<polygon fill="none" stroke="#000000" points="328.185,99.51 328.185,144.505 333.045,149.365 365.806,149.365 370.666,144.505 
	370.666,99.51 "/>
<polyline fill="none" stroke="#000000" points="328.185,111.693 350.313,115.911 370.666,112.032 "/>
<path fill="none" stroke="#000000" d="M278.223,9.408l-53.849,19.766c2.002,9.938,3.145,21.433,3.145,33.679
	c0,35.358-9.526,64.441-21.735,67.938c0,0,7.118,54.255-1.333,110.669c0,0-12.791,70.803,52.76,70.803h55.5"/>
<line fill="none" stroke="#000000" x1="225.691" y1="35.445" x2="276.624" y2="17.858"/>
<g>
	<circle fill="none" stroke="#000000" stroke-width="0.5" cx="307.991" cy="77.784" r="2.335"/>
	<g>
		<path fill="#EC2027" stroke="#000000" d="M306.735,77.013c0-0.126,0.102-0.229,0.228-0.229h2.055c0.127,0,0.229,0.102,0.229,0.229
			l0,0c0,0.126-0.102,0.229-0.229,0.229h-2.055C306.837,77.242,306.735,77.139,306.735,77.013L306.735,77.013z"/>
		<path fill="#EC2027" stroke="#000000" d="M306.735,78.555c0-0.126,0.102-0.229,0.228-0.229h2.055c0.127,0,0.229,0.103,0.229,0.229
			l0,0c0,0.126-0.102,0.229-0.229,0.229h-2.055C306.837,78.783,306.735,78.681,306.735,78.555L306.735,78.555z"/>
	</g>
</g>
<g>
	<circle fill="none" stroke="#000000" stroke-width="0.5" cx="307.991" cy="112.652" r="2.335"/>
	<g>
		<path fill="#EC2027" stroke="#000000" d="M306.735,111.882c0-0.126,0.102-0.229,0.228-0.229h2.055
			c0.127,0,0.229,0.103,0.229,0.229l0,0c0,0.126-0.102,0.229-0.229,0.229h-2.055C306.837,112.11,306.735,112.008,306.735,111.882
			L306.735,111.882z"/>
		<path fill="#EC2027" stroke="#000000" d="M306.735,113.423c0-0.126,0.102-0.229,0.228-0.229h2.055
			c0.127,0,0.229,0.103,0.229,0.229l0,0c0,0.126-0.102,0.229-0.229,0.229h-2.055C306.837,113.652,306.735,113.55,306.735,113.423
			L306.735,113.423z"/>
	</g>
</g>
<g>
	<circle fill="none" stroke="#000000" stroke-width="0.5" cx="307.991" cy="147.521" r="2.335"/>
	<g>
		<path fill="#EC2027" stroke="#000000" d="M306.735,146.75c0-0.126,0.102-0.229,0.228-0.229h2.055c0.127,0,0.229,0.103,0.229,0.229
			l0,0c0,0.126-0.102,0.229-0.229,0.229h-2.055C306.837,146.979,306.735,146.877,306.735,146.75L306.735,146.75z"/>
		<path fill="#EC2027" stroke="#000000" d="M306.735,148.292c0-0.126,0.102-0.229,0.228-0.229h2.055
			c0.127,0,0.229,0.103,0.229,0.229l0,0c0,0.126-0.102,0.229-0.229,0.229h-2.055C306.837,148.521,306.735,148.418,306.735,148.292
			L306.735,148.292z"/>
	</g>
</g>
<g>
	<circle fill="none" stroke="#000000" stroke-width="0.5" cx="307.991" cy="182.389" r="2.335"/>
	<g>
		<path fill="#EC2027" stroke="#000000" d="M306.735,181.62c0-0.127,0.102-0.229,0.228-0.229h2.055c0.127,0,0.229,0.102,0.229,0.229
			l0,0c0,0.125-0.102,0.229-0.229,0.229h-2.055C306.837,181.848,306.735,181.745,306.735,181.62L306.735,181.62z"/>
		<path fill="#EC2027" stroke="#000000" d="M306.735,183.161c0-0.125,0.102-0.229,0.228-0.229h2.055
			c0.127,0,0.229,0.104,0.229,0.229l0,0c0,0.127-0.102,0.229-0.229,0.229h-2.055C306.837,183.389,306.735,183.288,306.735,183.161
			L306.735,183.161z"/>
	</g>
</g>
<g>
	<circle fill="none" stroke="#000000" stroke-width="0.5" cx="307.991" cy="217.258" r="2.335"/>
	<g>
		<path fill="#EC2027" stroke="#000000" d="M306.735,216.489c0-0.127,0.102-0.229,0.228-0.229h2.055
			c0.127,0,0.229,0.102,0.229,0.229l0,0c0,0.125-0.102,0.229-0.229,0.229h-2.055C306.837,216.717,306.735,216.614,306.735,216.489
			L306.735,216.489z"/>
		<path fill="#EC2027" stroke="#000000" d="M306.735,218.03c0-0.127,0.102-0.229,0.228-0.229h2.055c0.127,0,0.229,0.102,0.229,0.229
			l0,0c0,0.127-0.102,0.229-0.229,0.229h-2.055C306.837,218.258,306.735,218.157,306.735,218.03L306.735,218.03z"/>
	</g>
</g>
<g>
	<circle fill="none" stroke="#000000" stroke-width="0.5" cx="307.991" cy="252.127" r="2.335"/>
	<g>
		<path fill="#EC2027" stroke="#000000" d="M306.735,251.356c0-0.125,0.102-0.229,0.228-0.229h2.055
			c0.127,0,0.229,0.104,0.229,0.229l0,0c0,0.127-0.102,0.229-0.229,0.229h-2.055C306.837,251.584,306.735,251.483,306.735,251.356
			L306.735,251.356z"/>
		<path fill="#EC2027" stroke="#000000" d="M306.735,252.899c0-0.127,0.102-0.229,0.228-0.229h2.055
			c0.127,0,0.229,0.102,0.229,0.229l0,0c0,0.125-0.102,0.229-0.229,0.229h-2.055C306.837,253.127,306.735,253.024,306.735,252.899
			L306.735,252.899z"/>
	</g>
</g>
<g>
	<circle fill="none" stroke="#000000" stroke-width="0.5" cx="307.991" cy="286.997" r="2.335"/>
	<g>
		<path fill="#EC2027" stroke="#000000" d="M306.735,286.225c0-0.125,0.102-0.229,0.228-0.229h2.055
			c0.127,0,0.229,0.104,0.229,0.229l0,0c0,0.127-0.102,0.229-0.229,0.229h-2.055C306.837,286.454,306.735,286.352,306.735,286.225
			L306.735,286.225z"/>
		<path fill="#EC2027" stroke="#000000" d="M306.735,287.768c0-0.127,0.102-0.229,0.228-0.229h2.055
			c0.127,0,0.229,0.102,0.229,0.229l0,0c0,0.125-0.102,0.229-0.229,0.229h-2.055C306.837,287.997,306.735,287.893,306.735,287.768
			L306.735,287.768z"/>
	</g>
</g>
<g>
	<circle fill="none" stroke="#000000" stroke-width="0.5" cx="47.547" cy="135.604" r="2.336"/>
	<g>
		<path fill="#EC2027" stroke="#000000" d="M47.593,134.132c0.11-0.062,0.25-0.024,0.312,0.085l1.019,1.784
			c0.062,0.11,0.024,0.25-0.085,0.312l0,0c-0.11,0.062-0.249,0.025-0.312-0.085l-1.019-1.784
			C47.446,134.334,47.484,134.194,47.593,134.132L47.593,134.132z"/>
		<path fill="#EC2027" stroke="#000000" d="M46.255,134.896c0.109-0.063,0.249-0.024,0.311,0.085l1.019,1.785
			c0.062,0.109,0.024,0.25-0.085,0.312l0,0c-0.109,0.062-0.249,0.024-0.312-0.085l-1.019-1.785
			C46.107,135.098,46.145,134.958,46.255,134.896L46.255,134.896z"/>
	</g>
</g>
<g>
	<circle fill="none" stroke="#000000" stroke-width="0.5" cx="13.852" cy="154.841" r="2.336"/>
	<g>
		<path fill="#EC2027" stroke="#000000" d="M13.899,153.368c0.109-0.062,0.249-0.023,0.311,0.086l1.019,1.784
			c0.062,0.11,0.024,0.249-0.085,0.312l0,0c-0.11,0.062-0.249,0.025-0.312-0.086l-1.019-1.783
			C13.751,153.571,13.79,153.43,13.899,153.368L13.899,153.368z"/>
		<path fill="#EC2027" stroke="#000000" d="M12.56,154.132c0.109-0.062,0.25-0.024,0.312,0.085l1.019,1.785
			c0.062,0.109,0.024,0.249-0.085,0.311l0,0c-0.109,0.063-0.249,0.025-0.312-0.084l-1.019-1.785
			C12.412,154.334,12.45,154.196,12.56,154.132L12.56,154.132z"/>
	</g>
</g>
<g>
	<circle fill="none" stroke="#000000" stroke-width="0.5" cx="307.991" cy="57.988" r="2.335"/>
	<g>
		<path fill="#EC2027" stroke="#000000" d="M306.735,57.217c0-0.126,0.102-0.229,0.228-0.229h2.055c0.127,0,0.229,0.103,0.229,0.229
			l0,0c0,0.126-0.102,0.229-0.229,0.229h-2.055C306.837,57.445,306.735,57.343,306.735,57.217L306.735,57.217z"/>
		<path fill="#EC2027" stroke="#000000" d="M306.735,58.759c0-0.126,0.102-0.229,0.228-0.229h2.055c0.127,0,0.229,0.103,0.229,0.229
			l0,0c0,0.126-0.102,0.229-0.229,0.229h-2.055C306.837,58.987,306.735,58.885,306.735,58.759L306.735,58.759z"/>
	</g>
</g>
<path fill="none" stroke="#000000" d="M204.222,243.629c0,0-8.68,82.223,42.71,82.223s65.55,0.229,65.55,0.229"/>
<polyline fill="none" stroke="#000000" points="310.555,53.517 303.156,54.564 303.156,312.262 312.824,312.262 312.824,52.347 "/>
<polygon fill="none" stroke="#000000" points="86.214,119.091 86.36,119.131 88.171,112.499 81.54,110.688 81.5,110.834 "/>
<path fill="none" stroke="#000000" d="M312.97,52.245c-0.776,0.878-2.467,1.486-4.428,1.486c-1.94,0-3.616-0.596-4.404-1.459"/>
<path fill="none" stroke="#000000" d="M224.374,29.174"/>
<rect x="20.219" y="127.015" transform="matrix(-0.8684 0.4958 -0.4958 -0.8684 166.7868 219.4405)" fill="none" stroke="#000000" width="68.119" height="9.668"/>
<line fill="none" stroke="#000000" x1="0.684" y1="156.88" x2="224.374" y2="29.174"/>
<polygon fill="none" stroke="#000000" points="24.473,198.292 0.684,156.88 22.303,144.537 47.763,189.133 "/>
<polygon fill="none" stroke="#000000" points="22.303,144.537 0.684,156.88 2.892,160.749 9.523,162.559 26.921,152.627 "/>
<line fill="none" stroke="#000000" x1="47.763" y1="189.133" x2="205.783" y2="130.791"/>
<path fill="none" stroke="#000000" d="M339.09,9.408l53.849,19.766c-2.001,9.938-3.145,21.433-3.145,33.679
	c0,35.358,9.526,64.441,21.735,67.938c0,0-7.117,54.255,1.333,110.669c0,0,12.791,70.803-52.759,70.803h-55.501"/>
<line fill="none" stroke="#000000" x1="391.621" y1="35.445" x2="340.689" y2="17.858"/>
<g>
	<circle fill="none" stroke="#000000" stroke-width="0.5" cx="569.766" cy="135.604" r="2.336"/>
	<g>
		<path fill="#EC2027" stroke="#000000" d="M569.719,134.132c-0.109-0.062-0.249-0.024-0.311,0.085l-1.02,1.784
			c-0.062,0.11-0.024,0.25,0.086,0.312l0,0c0.109,0.062,0.248,0.025,0.312-0.085l1.019-1.784
			C569.867,134.334,569.829,134.194,569.719,134.132L569.719,134.132z"/>
		<path fill="#EC2027" stroke="#000000" d="M571.059,134.896c-0.11-0.063-0.25-0.024-0.312,0.085l-1.02,1.785
			c-0.062,0.109-0.024,0.25,0.085,0.312l0,0c0.109,0.062,0.249,0.024,0.312-0.085l1.019-1.785
			C571.206,135.098,571.168,134.958,571.059,134.896L571.059,134.896z"/>
	</g>
</g>
<g>
	<circle fill="none" stroke="#000000" stroke-width="0.5" cx="603.461" cy="154.841" r="2.336"/>
	<g>
		<path fill="#EC2027" stroke="#000000" d="M603.413,153.368c-0.108-0.062-0.249-0.023-0.311,0.086l-1.02,1.784
			c-0.062,0.11-0.024,0.249,0.085,0.312l0,0c0.109,0.062,0.25,0.025,0.312-0.086l1.019-1.783
			C603.562,153.571,603.523,153.43,603.413,153.368L603.413,153.368z"/>
		<path fill="#EC2027" stroke="#000000" d="M604.753,154.132c-0.109-0.062-0.249-0.024-0.312,0.085l-1.02,1.785
			c-0.062,0.109-0.024,0.249,0.085,0.311l0,0c0.11,0.063,0.249,0.025,0.312-0.084l1.02-1.785
			C604.9,154.334,604.862,154.196,604.753,154.132L604.753,154.132z"/>
	</g>
</g>
<path fill="none" stroke="#000000" d="M413.092,243.629c0,0,8.679,82.223-42.711,82.223c-51.389,0-65.55,0.229-65.55,0.229"/>
<polygon fill="none" stroke="#000000" points="531.099,119.091 530.953,119.131 529.142,112.499 535.772,110.688 535.812,110.834 
	"/>
<path fill="none" stroke="#000000" d="M392.938,29.174"/>
<rect x="528.975" y="127.015" transform="matrix(0.8684 0.4958 -0.4958 0.8684 139.4451 -261.8055)" fill="none" stroke="#000000" width="68.119" height="9.669"/>
<line fill="none" stroke="#000000" x1="616.629" y1="156.88" x2="392.938" y2="29.174"/>
<polygon fill="none" stroke="#000000" points="592.84,198.292 616.629,156.88 595.01,144.537 569.55,189.133 "/>
<polygon fill="none" stroke="#000000" points="595.01,144.537 616.629,156.88 614.422,160.749 607.789,162.559 590.392,152.627 "/>
<line fill="none" stroke="#000000" x1="569.55" y1="189.133" x2="411.529" y2="130.791"/>
<path fill="none" stroke="#000000" d="M324.244,0.5c9.02,0,16.33,7.465,16.33,16.673c0,1.601-0.221,3.148-0.633,4.614l-12.043,40.38
	l-15.074-9.821l20.418-41.62c0.25-0.712,0.385-1.465,0.385-2.244c0-4.409-4.303-7.982-9.611-7.982c-0.308,0-0.611,0.012-0.912,0.035
	l-0.743,0.051c-3.812,0.849-8.582,1.354-13.761,1.354s-9.949-0.505-13.762-1.354l-0.857-0.051c-0.3-0.023-0.604-0.035-0.912-0.035
	c-5.308,0-9.611,3.574-9.611,7.982c0,0.779,0.135,1.532,0.386,2.244l20.417,41.62l-15.074,9.821l-12.043-40.38
	c-0.412-1.466-0.633-3.014-0.633-4.614c0-9.208,7.312-16.673,16.331-16.673"/>
<path fill="none" stroke="#000000" d="M333.629,8.785c-1.296-0.359-2.682-0.553-4.123-0.553c-0.417,0-0.829,0.016-1.236,0.048
	l-1.007,0.068c-5.165,1.15-11.627,1.834-18.643,1.834c-7.017,0-13.479-0.685-18.644-1.834l-1.162-0.068
	c-0.407-0.032-0.819-0.048-1.236-0.048c-1.43,0-2.806,0.192-4.093,0.545"/>
<rect x="299.661" y="16.694" fill="none" stroke="#000000" stroke-miterlimit="10" width="18.498" height="8.246"/>
<g>
	<g>
		<line fill="none" stroke="#ED1C24" x1="214.643" y1="130.847" x2="402.258" y2="130.847"/>
		<g>
			<polygon fill="#ED1C24" points="216.624,133.752 205.783,130.847 216.624,127.942 			"/>
		</g>
		<g>
			<polygon fill="#ED1C24" points="400.275,133.752 411.117,130.847 400.275,127.942 			"/>
		</g>
	</g>
</g>
<g>
	<g>
		<line fill="none" stroke="#ED1C24" x1="236.021" y1="29.791" x2="380.199" y2="29.791"/>
		<g>
			<polygon fill="#ED1C24" points="238.003,32.696 227.161,29.791 238.003,26.885 			"/>
		</g>
		<g>
			<polygon fill="#ED1C24" points="378.218,32.696 389.059,29.791 378.218,26.885 			"/>
		</g>
	</g>
</g>
<g>
	<g>
		<line fill="none" stroke="#ED1C24" x1="35.111" y1="201.452" x2="197.776" y2="142.796"/>
		<g>
			<polygon fill="#ED1C24" points="37.961,203.512 26.777,204.458 35.99,198.047 			"/>
		</g>
		<g>
			<polygon fill="#ED1C24" points="196.898,146.201 206.11,139.791 194.927,140.735 			"/>
		</g>
	</g>
</g>
<g>
	<g>
		<line fill="none" stroke="#ED1C24" x1="294.777" y1="19.317" x2="294.777" y2="316.264"/>
		<g>
			<polygon fill="#ED1C24" points="291.872,21.298 294.777,10.458 297.683,21.298 			"/>
		</g>
		<g>
			<polygon fill="#ED1C24" points="291.872,314.284 294.777,325.124 297.683,314.284 			"/>
		</g>
	</g>
</g>
<g>
	<circle fill="#ED1C24" cx="257.021" cy="29.791" r="6.96"/>
	<text transform="matrix(1 0 0 1 253.9424 34.0737)" fill="#FFFFFF" font-family="'TradeGothic-BoldTwo'" font-size="12">1</text>
</g>
<g>
	<circle fill="#ED1C24" cx="294.777" cy="93.427" r="6.96"/>
	<text transform="matrix(1 0 0 1 291.6992 97.7114)" fill="#FFFFFF" font-family="'TradeGothic-BoldTwo'" font-size="12">2</text>
</g>
<g>
	<circle fill="#ED1C24" cx="237.01" cy="130.847" r="6.96"/>
	<text transform="matrix(1 0 0 1 233.9321 135.1294)" fill="#FFFFFF" font-family="'TradeGothic-BoldTwo'" font-size="12">3</text>
</g>
<g>
	<circle fill="#ED1C24" cx="116.718" cy="172.409" r="6.96"/>
	<text transform="matrix(1 0 0 1 113.6401 176.6919)" fill="#FFFFFF" font-family="'TradeGothic-BoldTwo'" font-size="12">4</text>
</g>
</svg>
