<?xml version="1.0" encoding="utf-8"?>
<!-- Generator: Adobe Illustrator 16.0.0, SVG Export Plug-In . SVG Version: 6.00 Build 0)  -->
<!DOCTYPE svg PUBLIC "-//W3C//DTD SVG 1.1//EN" "http://www.w3.org/Graphics/SVG/1.1/DTD/svg11.dtd">
<svg version="1.1" id="Layer_1" xmlns="http://www.w3.org/2000/svg" xmlns:xlink="http://www.w3.org/1999/xlink" x="0px" y="0px"
	 width="337.156px" height="464.889px" viewBox="0 0 337.156 464.889" enable-background="new 0 0 337.156 464.889"
	 xml:space="preserve">
<line fill="none" stroke="#000000" stroke-linecap="round" stroke-linejoin="round" x1="78.647" y1="21.578" x2="81.997" y2="6.913"/>
<polyline fill="none" stroke="#000000" stroke-linecap="round" stroke-linejoin="round" points="78.647,21.578 0.5,445.753 
	72.203,463.486 168.578,143.521 168.578,100.345 "/>
<g>
	<g>
		
			<line fill="none" stroke="#ED1C24" stroke-linecap="round" stroke-linejoin="round" x1="83.747" y1="456.405" x2="169.382" y2="172.099"/>
		<g>
			<polygon fill="#ED1C24" points="87.1,455.347 81.192,464.889 81.537,453.671 			"/>
		</g>
		<g>
			<polygon fill="#ED1C24" points="171.592,174.834 171.937,163.616 166.029,173.159 			"/>
		</g>
	</g>
</g>
<g>
	<g>
		
			<line fill="none" stroke="#ED1C24" stroke-linecap="round" stroke-linejoin="round" x1="12.535" y1="431.113" x2="67.038" y2="444.592"/>
		<g>
			<polygon fill="#ED1C24" points="13.761,434.409 3.935,428.986 15.156,428.769 			"/>
		</g>
		<g>
			<polygon fill="#ED1C24" points="64.417,446.937 75.638,446.719 65.812,441.296 			"/>
		</g>
	</g>
</g>
<g>
	<g>
		
			<line fill="none" stroke="#ED1C24" stroke-linecap="round" stroke-linejoin="round" x1="176.84" y1="144.284" x2="272.495" y2="144.352"/>
		<g>
			<polygon fill="#ED1C24" points="178.82,147.19 167.981,144.277 178.824,141.38 			"/>
		</g>
		<g>
			<polygon fill="#ED1C24" points="270.512,147.255 281.354,144.358 270.516,141.445 			"/>
		</g>
	</g>
</g>
<line fill="none" stroke="#000000" stroke-width="0.75" stroke-linecap="round" stroke-linejoin="round" stroke-dasharray="2" x1="2.427" y1="437.272" x2="74.13" y2="455.005"/>
<path fill="none" stroke="#000000" stroke-width="0.75" stroke-linecap="round" stroke-linejoin="round" d="M168.578,31.34
	c-19.639-0.001-37.88-2.374-53.039-6.457l0,0c-14.745-3.982-26.577-9.54-33.991-16.282"/>
<path fill="none" stroke="#000000" stroke-linecap="round" stroke-linejoin="round" d="M66.983,85.004
	c5.393-7.398,15.959-26.822,23.341-71.749"/>
<line fill="none" stroke="#000000" stroke-linecap="round" stroke-linejoin="round" x1="258.509" y1="21.578" x2="255.159" y2="6.913"/>
<polyline fill="none" stroke="#000000" stroke-linecap="round" stroke-linejoin="round" points="258.509,21.578 336.656,445.753 
	264.953,463.486 168.578,143.521 168.578,31.235 "/>
<line fill="none" stroke="#000000" stroke-width="0.75" stroke-linecap="round" stroke-linejoin="round" stroke-dasharray="2" x1="334.729" y1="437.272" x2="263.026" y2="455.005"/>
<g>
	<path fill="none" stroke="#000000" stroke-linecap="round" stroke-linejoin="round" d="M168.578,29.798
		c-39.027,0-72.479-9.448-86.581-22.885"/>
	<path fill="none" stroke="#000000" stroke-linecap="round" stroke-linejoin="round" d="M168.578,29.798
		c39.027,0,72.479-9.448,86.581-22.885"/>
</g>
<path fill="none" stroke="#000000" stroke-width="0.75" stroke-linecap="round" stroke-linejoin="round" d="M168.578,31.34
	c19.639-0.001,37.88-2.374,53.039-6.457l0,0c14.744-3.982,26.577-9.54,33.99-16.282"/>
<g>
	<path fill="none" stroke="#000000" stroke-linecap="round" stroke-linejoin="round" d="M168.578,0.5
		c-32.1,0-61.905,2.366-86.581,6.413"/>
	<path fill="none" stroke="#000000" stroke-linecap="round" stroke-linejoin="round" d="M168.578,0.5
		c32.1,0,61.905,2.366,86.581,6.413"/>
</g>
<g>
	<path fill="none" stroke="#000000" stroke-linecap="round" stroke-linejoin="round" d="M168.578,21.96
		c-17.633,0-34.571,0.715-50.35,2.029"/>
	<path fill="none" stroke="#000000" stroke-linecap="round" stroke-linejoin="round" d="M218.928,23.989
		c-15.779-1.314-32.717-2.029-50.35-2.029"/>
</g>
<g>
	<path fill="none" stroke="#000000" stroke-width="0.5" stroke-linecap="round" stroke-linejoin="round" d="M78.647,21.578
		c0.786,0.563,1.586,1.112,2.403,1.648c10.185,6.599,23.016,11.396,37.877,14.808c14.85,3.378,31.714,5.251,49.651,5.255"/>
	<path fill="none" stroke="#000000" stroke-width="0.5" stroke-linecap="round" stroke-linejoin="round" d="M258.509,21.578
		c-0.786,0.563-1.586,1.112-2.403,1.648c-10.185,6.599-23.016,11.396-37.877,14.808c-14.85,3.378-31.714,5.251-49.651,5.255"/>
</g>
<path fill="none" stroke="#000000" stroke-linecap="round" stroke-linejoin="round" d="M270.173,85.004
	c-5.393-7.398-15.959-26.822-23.341-71.749"/>
<circle fill="none" stroke="#000000" stroke-linecap="round" stroke-linejoin="round" cx="176.031" cy="36.995" r="3.084"/>
<path fill="none" stroke="#000000" stroke-width="0.5" stroke-linecap="round" stroke-linejoin="round" d="M168.578,103.943
	c0,0,14.906-0.891,14.906-20.427V29.734"/>
<polygon fill="#FFFFFF" stroke="#000000" stroke-linecap="round" stroke-linejoin="round" points="119.871,46.76 123.726,27.871 
	129.392,29.027 125.536,47.916 119.871,46.76 "/>
<polygon fill="#FFFFFF" stroke="#000000" stroke-linecap="round" stroke-linejoin="round" points="217.286,46.76 213.431,27.871 
	207.765,29.027 211.62,47.916 217.286,46.76 "/>
<g>
	<g>
		
			<line fill="none" stroke="#ED1C24" stroke-linecap="round" stroke-linejoin="round" x1="158.164" y1="37.953" x2="158.164" y2="135.884"/>
		<g>
			<polygon fill="#ED1C24" points="155.258,39.934 158.164,29.093 161.069,39.934 			"/>
		</g>
		<g>
			<polygon fill="#ED1C24" points="155.258,133.903 158.164,144.744 161.069,133.903 			"/>
		</g>
	</g>
</g>
<g>
	<circle fill="#ED1C24" cx="158.164" cy="84.43" r="6.96"/>
	<text transform="matrix(1 0 0 1 155.0854 88.7139)" fill="#FFFFFF" font-family="'TradeGothic-BoldTwo'" font-size="12">2</text>
</g>
<g>
	<circle fill="#ED1C24" cx="224.668" cy="144.277" r="6.96"/>
	<text transform="matrix(1 0 0 1 221.5898 148.5601)" fill="#FFFFFF" font-family="'TradeGothic-BoldTwo'" font-size="12">3</text>
</g>
<g>
	<circle fill="#ED1C24" cx="128.647" cy="307.662" r="6.96"/>
	<text transform="matrix(1 0 0 1 125.5693 311.9443)" fill="#FFFFFF" font-family="'TradeGothic-BoldTwo'" font-size="12">4</text>
</g>
<g>
	<circle fill="#ED1C24" cx="30.521" cy="435.405" r="6.96"/>
	<text transform="matrix(1 0 0 1 27.4434 439.6885)" fill="#FFFFFF" font-family="'TradeGothic-BoldTwo'" font-size="12">5</text>
</g>
<rect x="153.7" y="8.157" fill="#FFFFFF" stroke="#000000" width="29.755" height="5.41"/>
<g>
	<g>
		
			<line fill="none" stroke="#ED1C24" stroke-linecap="round" stroke-linejoin="round" x1="92.064" y1="7.747" x2="246.75" y2="7.747"/>
		<g>
			<polygon fill="#ED1C24" points="94.046,10.652 83.205,7.747 94.046,4.842 			"/>
		</g>
		<g>
			<polygon fill="#ED1C24" points="244.769,10.652 255.609,7.747 244.769,4.842 			"/>
		</g>
	</g>
</g>
<g>
	<circle fill="#ED1C24" cx="112.118" cy="7.747" r="6.96"/>
	<text transform="matrix(1 0 0 1 109.0396 12.0303)" fill="#FFFFFF" font-family="'TradeGothic-BoldTwo'" font-size="12">1</text>
</g>
</svg>
