<?xml version="1.0" encoding="utf-8"?>
<!-- Generator: Adobe Illustrator 16.0.0, SVG Export Plug-In . SVG Version: 6.00 Build 0)  -->
<!DOCTYPE svg PUBLIC "-//W3C//DTD SVG 1.1//EN" "http://www.w3.org/Graphics/SVG/1.1/DTD/svg11.dtd">
<svg version="1.1" id="Layer_1" xmlns="http://www.w3.org/2000/svg" xmlns:xlink="http://www.w3.org/1999/xlink" x="0px" y="0px"
	 width="952.91px" height="464.889px" viewBox="0 0 952.91 464.889" enable-background="new 0 0 952.91 464.889"
	 xml:space="preserve">
<line fill="none" stroke="#000000" stroke-linecap="round" stroke-linejoin="round" x1="694.401" y1="21.578" x2="697.751" y2="6.913"/>
<polyline fill="none" stroke="#000000" stroke-linecap="round" stroke-linejoin="round" points="694.401,21.578 616.254,445.753 
	687.957,463.486 784.332,143.521 784.332,100.345 "/>
<g>
	<g>
		
			<line fill="none" stroke="#ED1C24" stroke-linecap="round" stroke-linejoin="round" x1="699.501" y1="456.405" x2="785.136" y2="172.099"/>
		<g>
			<polygon fill="#ED1C24" points="702.854,455.347 696.946,464.889 697.29,453.671 			"/>
		</g>
		<g>
			<polygon fill="#ED1C24" points="787.347,174.834 787.69,163.616 781.782,173.159 			"/>
		</g>
	</g>
</g>
<g>
	<g>
		
			<line fill="none" stroke="#ED1C24" stroke-linecap="round" stroke-linejoin="round" x1="628.289" y1="431.113" x2="682.792" y2="444.592"/>
		<g>
			<polygon fill="#ED1C24" points="629.515,434.409 619.688,428.986 630.91,428.769 			"/>
		</g>
		<g>
			<polygon fill="#ED1C24" points="680.171,446.937 691.392,446.719 681.565,441.296 			"/>
		</g>
	</g>
</g>
<g>
	<g>
		
			<line fill="none" stroke="#ED1C24" stroke-linecap="round" stroke-linejoin="round" x1="672.562" y1="198.146" x2="751.241" y2="217.604"/>
		<g>
			<polygon fill="#ED1C24" points="673.787,201.441 663.961,196.019 675.183,195.801 			"/>
		</g>
		<g>
			<polygon fill="#ED1C24" points="748.62,219.948 759.841,219.73 750.015,214.308 			"/>
		</g>
	</g>
</g>
<line fill="none" stroke="#000000" stroke-width="0.75" stroke-linecap="round" stroke-linejoin="round" stroke-dasharray="2" x1="618.181" y1="437.272" x2="689.884" y2="455.005"/>
<path fill="none" stroke="#000000" stroke-width="0.75" stroke-linecap="round" stroke-linejoin="round" d="M784.332,31.34
	c-19.639-0.001-37.88-2.374-53.038-6.457l0,0c-14.745-3.982-26.578-9.54-33.991-16.282"/>
<path fill="none" stroke="#000000" stroke-linecap="round" stroke-linejoin="round" d="M682.737,85.004
	c5.393-7.398,15.959-26.822,23.341-71.749"/>
<line fill="none" stroke="#000000" stroke-linecap="round" stroke-linejoin="round" x1="874.263" y1="21.578" x2="870.913" y2="6.913"/>
<polyline fill="none" stroke="#000000" stroke-linecap="round" stroke-linejoin="round" points="874.263,21.578 952.41,445.753 
	880.707,463.486 784.332,143.521 784.332,31.235 "/>
<line fill="none" stroke="#000000" stroke-width="0.75" stroke-linecap="round" stroke-linejoin="round" stroke-dasharray="2" x1="950.483" y1="437.272" x2="878.78" y2="455.005"/>
<g>
	<path fill="none" stroke="#000000" stroke-linecap="round" stroke-linejoin="round" d="M784.332,29.798
		c-39.027,0-72.479-9.448-86.581-22.885"/>
	<path fill="none" stroke="#000000" stroke-linecap="round" stroke-linejoin="round" d="M784.332,29.798
		c39.027,0,72.479-9.448,86.581-22.885"/>
</g>
<path fill="none" stroke="#000000" stroke-width="0.75" stroke-linecap="round" stroke-linejoin="round" d="M784.332,31.34
	c19.639-0.001,37.88-2.374,53.039-6.457l0,0c14.744-3.982,26.577-9.54,33.99-16.282"/>
<g>
	<path fill="none" stroke="#000000" stroke-linecap="round" stroke-linejoin="round" d="M784.332,0.5
		c-32.1,0-61.905,2.366-86.581,6.413"/>
	<path fill="none" stroke="#000000" stroke-linecap="round" stroke-linejoin="round" d="M784.332,0.5
		c32.1,0,61.905,2.366,86.581,6.413"/>
</g>
<g>
	<path fill="none" stroke="#000000" stroke-linecap="round" stroke-linejoin="round" d="M784.332,21.96
		c-17.634,0-34.571,0.715-50.35,2.029"/>
	<path fill="none" stroke="#000000" stroke-linecap="round" stroke-linejoin="round" d="M834.683,23.989
		c-15.779-1.314-32.717-2.029-50.351-2.029"/>
</g>
<g>
	<path fill="none" stroke="#000000" stroke-width="0.5" stroke-linecap="round" stroke-linejoin="round" d="M694.401,21.578
		c0.785,0.563,1.586,1.112,2.402,1.648c10.186,6.599,23.016,11.396,37.877,14.808c14.851,3.378,31.715,5.251,49.651,5.255"/>
	<path fill="none" stroke="#000000" stroke-width="0.5" stroke-linecap="round" stroke-linejoin="round" d="M874.263,21.578
		c-0.785,0.563-1.586,1.112-2.402,1.648c-10.186,6.599-23.016,11.396-37.877,14.808c-14.851,3.378-31.715,5.251-49.651,5.255"/>
</g>
<path fill="none" stroke="#000000" stroke-linecap="round" stroke-linejoin="round" d="M885.927,85.004
	c-5.393-7.398-15.959-26.822-23.341-71.749"/>
<circle fill="none" stroke="#000000" stroke-linecap="round" stroke-linejoin="round" cx="791.785" cy="36.995" r="3.084"/>
<path fill="none" stroke="#000000" stroke-width="0.5" stroke-linecap="round" stroke-linejoin="round" d="M784.332,103.943
	c0,0,14.905-0.891,14.905-20.427V29.734"/>
<polygon fill="#FFFFFF" stroke="#000000" stroke-linecap="round" stroke-linejoin="round" points="735.624,46.76 739.479,27.871 
	745.146,29.027 741.29,47.916 735.624,46.76 "/>
<polygon fill="#FFFFFF" stroke="#000000" stroke-linecap="round" stroke-linejoin="round" points="833.04,46.76 829.185,27.871 
	823.519,29.027 827.374,47.916 833.04,46.76 "/>
<g>
	<g>
		
			<line fill="none" stroke="#ED1C24" stroke-linecap="round" stroke-linejoin="round" x1="773.917" y1="37.953" x2="773.917" y2="135.884"/>
		<g>
			<polygon fill="#ED1C24" points="771.013,39.934 773.917,29.093 776.823,39.934 			"/>
		</g>
		<g>
			<polygon fill="#ED1C24" points="771.013,133.903 773.917,144.744 776.823,133.903 			"/>
		</g>
	</g>
</g>
<g>
	<circle fill="#ED1C24" cx="773.917" cy="84.43" r="6.96"/>
	<text transform="matrix(1 0 0 1 770.8389 88.7139)" fill="#FFFFFF" font-family="'TradeGothic-BoldTwo'" font-size="12">2</text>
</g>
<g>
	<circle fill="#ED1C24" cx="690.927" cy="202.57" r="6.961"/>
	<text transform="matrix(1 0 0 1 687.8486 206.8525)" fill="#FFFFFF" font-family="'TradeGothic-BoldTwo'" font-size="12">3</text>
</g>
<g>
	<circle fill="#ED1C24" cx="744.401" cy="307.662" r="6.96"/>
	<text transform="matrix(1 0 0 1 741.3232 311.9443)" fill="#FFFFFF" font-family="'TradeGothic-BoldTwo'" font-size="12">4</text>
</g>
<g>
	<circle fill="#ED1C24" cx="646.275" cy="435.405" r="6.96"/>
	<text transform="matrix(1 0 0 1 643.1973 439.6885)" fill="#FFFFFF" font-family="'TradeGothic-BoldTwo'" font-size="12">5</text>
</g>
<rect x="769.454" y="8.157" fill="#FFFFFF" stroke="#000000" width="29.756" height="5.41"/>
<g>
	<g>
		
			<line fill="none" stroke="#ED1C24" stroke-linecap="round" stroke-linejoin="round" x1="707.818" y1="7.747" x2="862.504" y2="7.747"/>
		<g>
			<polygon fill="#ED1C24" points="709.8,10.652 698.959,7.747 709.8,4.842 			"/>
		</g>
		<g>
			<polygon fill="#ED1C24" points="860.522,10.652 871.363,7.747 860.522,4.842 			"/>
		</g>
	</g>
</g>
<g>
	<circle fill="#ED1C24" cx="727.872" cy="7.747" r="6.96"/>
	<text transform="matrix(1 0 0 1 724.7939 12.0303)" fill="#FFFFFF" font-family="'TradeGothic-BoldTwo'" font-size="12">1</text>
</g>
<polygon fill="none" stroke="#000000" points="328.185,170.418 328.185,215.412 333.045,220.273 365.806,220.273 370.666,215.412 
	370.666,170.418 "/>
<polyline fill="none" stroke="#000000" points="328.185,182.601 350.313,186.819 370.666,182.94 "/>
<path fill="none" stroke="#000000" d="M278.223,80.315l-53.849,19.766c2.002,9.938,3.145,21.433,3.145,33.679
	c0,35.358-9.526,64.441-21.735,67.938c0,0,7.118,54.255-1.333,110.669c0,0-12.791,70.803,52.76,70.803h55.5"/>
<line fill="none" stroke="#000000" x1="225.691" y1="106.353" x2="276.624" y2="88.766"/>
<g>
	<circle fill="none" stroke="#000000" stroke-width="0.5" cx="307.991" cy="148.692" r="2.335"/>
	<g>
		<path fill="#EC2027" stroke="#000000" d="M306.735,147.921c0-0.126,0.102-0.229,0.228-0.229h2.055
			c0.127,0,0.229,0.102,0.229,0.229l0,0c0,0.126-0.102,0.229-0.229,0.229h-2.055C306.837,148.149,306.735,148.047,306.735,147.921
			L306.735,147.921z"/>
		<path fill="#EC2027" stroke="#000000" d="M306.735,149.462c0-0.126,0.102-0.229,0.228-0.229h2.055
			c0.127,0,0.229,0.103,0.229,0.229l0,0c0,0.126-0.102,0.229-0.229,0.229h-2.055C306.837,149.691,306.735,149.588,306.735,149.462
			L306.735,149.462z"/>
	</g>
</g>
<g>
	<circle fill="none" stroke="#000000" stroke-width="0.5" cx="307.991" cy="183.56" r="2.335"/>
	<g>
		<path fill="#EC2027" stroke="#000000" d="M306.735,182.79c0-0.126,0.102-0.229,0.228-0.229h2.055c0.127,0,0.229,0.103,0.229,0.229
			l0,0c0,0.126-0.102,0.229-0.229,0.229h-2.055C306.837,183.018,306.735,182.916,306.735,182.79L306.735,182.79z"/>
		<path fill="#EC2027" stroke="#000000" d="M306.735,184.331c0-0.126,0.102-0.229,0.228-0.229h2.055
			c0.127,0,0.229,0.103,0.229,0.229l0,0c0,0.126-0.102,0.229-0.229,0.229h-2.055C306.837,184.56,306.735,184.458,306.735,184.331
			L306.735,184.331z"/>
	</g>
</g>
<g>
	<circle fill="none" stroke="#000000" stroke-width="0.5" cx="307.991" cy="218.43" r="2.335"/>
	<g>
		<path fill="#EC2027" stroke="#000000" d="M306.735,217.658c0-0.126,0.102-0.229,0.228-0.229h2.055
			c0.127,0,0.229,0.103,0.229,0.229l0,0c0,0.127-0.102,0.229-0.229,0.229h-2.055C306.837,217.887,306.735,217.785,306.735,217.658
			L306.735,217.658z"/>
		<path fill="#EC2027" stroke="#000000" d="M306.735,219.199c0-0.125,0.102-0.229,0.228-0.229h2.055
			c0.127,0,0.229,0.104,0.229,0.229l0,0c0,0.127-0.102,0.229-0.229,0.229h-2.055C306.837,219.428,306.735,219.326,306.735,219.199
			L306.735,219.199z"/>
	</g>
</g>
<g>
	<circle fill="none" stroke="#000000" stroke-width="0.5" cx="307.991" cy="253.297" r="2.335"/>
	<g>
		<path fill="#EC2027" stroke="#000000" d="M306.735,252.527c0-0.127,0.102-0.229,0.228-0.229h2.055
			c0.127,0,0.229,0.102,0.229,0.229l0,0c0,0.125-0.102,0.229-0.229,0.229h-2.055C306.837,252.756,306.735,252.652,306.735,252.527
			L306.735,252.527z"/>
		<path fill="#EC2027" stroke="#000000" d="M306.735,254.068c0-0.125,0.102-0.229,0.228-0.229h2.055
			c0.127,0,0.229,0.104,0.229,0.229l0,0c0,0.127-0.102,0.229-0.229,0.229h-2.055C306.837,254.297,306.735,254.195,306.735,254.068
			L306.735,254.068z"/>
	</g>
</g>
<g>
	<circle fill="none" stroke="#000000" stroke-width="0.5" cx="307.991" cy="288.166" r="2.335"/>
	<g>
		<path fill="#EC2027" stroke="#000000" d="M306.735,287.396c0-0.127,0.102-0.229,0.228-0.229h2.055
			c0.127,0,0.229,0.102,0.229,0.229l0,0c0,0.125-0.102,0.229-0.229,0.229h-2.055C306.837,287.625,306.735,287.521,306.735,287.396
			L306.735,287.396z"/>
		<path fill="#EC2027" stroke="#000000" d="M306.735,288.938c0-0.127,0.102-0.229,0.228-0.229h2.055
			c0.127,0,0.229,0.102,0.229,0.229l0,0c0,0.127-0.102,0.229-0.229,0.229h-2.055C306.837,289.166,306.735,289.064,306.735,288.938
			L306.735,288.938z"/>
	</g>
</g>
<g>
	<circle fill="none" stroke="#000000" stroke-width="0.5" cx="307.991" cy="323.035" r="2.335"/>
	<g>
		<path fill="#EC2027" stroke="#000000" d="M306.735,322.264c0-0.125,0.102-0.229,0.228-0.229h2.055
			c0.127,0,0.229,0.104,0.229,0.229l0,0c0,0.127-0.102,0.229-0.229,0.229h-2.055C306.837,322.492,306.735,322.391,306.735,322.264
			L306.735,322.264z"/>
		<path fill="#EC2027" stroke="#000000" d="M306.735,323.807c0-0.127,0.102-0.229,0.228-0.229h2.055
			c0.127,0,0.229,0.102,0.229,0.229l0,0c0,0.125-0.102,0.229-0.229,0.229h-2.055C306.837,324.035,306.735,323.932,306.735,323.807
			L306.735,323.807z"/>
	</g>
</g>
<g>
	<circle fill="none" stroke="#000000" stroke-width="0.5" cx="307.991" cy="357.904" r="2.335"/>
	<g>
		<path fill="#EC2027" stroke="#000000" d="M306.735,357.133c0-0.125,0.102-0.229,0.228-0.229h2.055
			c0.127,0,0.229,0.104,0.229,0.229l0,0c0,0.127-0.102,0.229-0.229,0.229h-2.055C306.837,357.361,306.735,357.26,306.735,357.133
			L306.735,357.133z"/>
		<path fill="#EC2027" stroke="#000000" d="M306.735,358.676c0-0.127,0.102-0.229,0.228-0.229h2.055
			c0.127,0,0.229,0.102,0.229,0.229l0,0c0,0.125-0.102,0.229-0.229,0.229h-2.055C306.837,358.904,306.735,358.801,306.735,358.676
			L306.735,358.676z"/>
	</g>
</g>
<g>
	<circle fill="none" stroke="#000000" stroke-width="0.5" cx="47.547" cy="206.513" r="2.336"/>
	<g>
		<path fill="#EC2027" stroke="#000000" d="M47.593,205.039c0.11-0.062,0.25-0.023,0.312,0.086l1.019,1.783
			c0.062,0.111,0.024,0.25-0.085,0.312l0,0c-0.11,0.062-0.249,0.025-0.312-0.086l-1.019-1.783
			C47.446,205.242,47.484,205.102,47.593,205.039L47.593,205.039z"/>
		<path fill="#EC2027" stroke="#000000" d="M46.255,205.804c0.109-0.063,0.249-0.024,0.311,0.085l1.019,1.785
			c0.062,0.109,0.024,0.249-0.085,0.311l0,0c-0.109,0.062-0.249,0.025-0.312-0.085l-1.019-1.784
			C46.107,206.006,46.145,205.865,46.255,205.804L46.255,205.804z"/>
	</g>
</g>
<g>
	<circle fill="none" stroke="#000000" stroke-width="0.5" cx="13.852" cy="225.749" r="2.336"/>
	<g>
		<path fill="#EC2027" stroke="#000000" d="M13.899,224.275c0.109-0.062,0.249-0.023,0.311,0.086l1.019,1.784
			c0.062,0.11,0.024,0.249-0.085,0.312l0,0c-0.11,0.062-0.249,0.025-0.312-0.086l-1.019-1.783
			C13.751,224.479,13.79,224.338,13.899,224.275L13.899,224.275z"/>
		<path fill="#EC2027" stroke="#000000" d="M12.56,225.04c0.109-0.062,0.25-0.024,0.312,0.085l1.019,1.785
			c0.062,0.109,0.024,0.249-0.085,0.311l0,0c-0.109,0.063-0.249,0.025-0.312-0.084l-1.019-1.785
			C12.412,225.242,12.45,225.104,12.56,225.04L12.56,225.04z"/>
	</g>
</g>
<g>
	<circle fill="none" stroke="#000000" stroke-width="0.5" cx="307.991" cy="128.896" r="2.335"/>
	<g>
		<path fill="#EC2027" stroke="#000000" d="M306.735,128.125c0-0.126,0.102-0.229,0.228-0.229h2.055
			c0.127,0,0.229,0.103,0.229,0.229l0,0c0,0.126-0.102,0.229-0.229,0.229h-2.055C306.837,128.353,306.735,128.25,306.735,128.125
			L306.735,128.125z"/>
		<path fill="#EC2027" stroke="#000000" d="M306.735,129.667c0-0.126,0.102-0.229,0.228-0.229h2.055
			c0.127,0,0.229,0.103,0.229,0.229l0,0c0,0.126-0.102,0.229-0.229,0.229h-2.055C306.837,129.895,306.735,129.792,306.735,129.667
			L306.735,129.667z"/>
	</g>
</g>
<path fill="none" stroke="#000000" d="M204.222,314.537c0,0-8.68,82.223,42.71,82.223s65.55,0.229,65.55,0.229"/>
<polyline fill="none" stroke="#000000" points="310.555,124.424 303.156,125.472 303.156,383.17 312.824,383.17 312.824,123.254 "/>
<polygon fill="none" stroke="#000000" points="86.214,189.998 86.36,190.039 88.171,183.407 81.54,181.595 81.5,181.742 "/>
<path fill="none" stroke="#000000" d="M312.97,123.153c-0.776,0.878-2.467,1.486-4.428,1.486c-1.94,0-3.616-0.596-4.404-1.459"/>
<path fill="none" stroke="#000000" d="M224.374,100.082"/>
<rect x="20.219" y="197.923" transform="matrix(-0.8684 0.4958 -0.4958 -0.8684 201.9428 351.9271)" fill="none" stroke="#000000" width="68.119" height="9.668"/>
<line fill="none" stroke="#000000" x1="0.684" y1="227.788" x2="224.374" y2="100.082"/>
<polygon fill="none" stroke="#000000" points="24.473,269.199 0.684,227.788 22.303,215.445 47.763,260.041 "/>
<polygon fill="none" stroke="#000000" points="22.303,215.445 0.684,227.788 2.892,231.656 9.523,233.467 26.921,223.535 "/>
<line fill="none" stroke="#000000" x1="47.763" y1="260.041" x2="205.783" y2="201.698"/>
<path fill="none" stroke="#000000" d="M339.09,80.315l53.849,19.766c-2.001,9.938-3.145,21.433-3.145,33.679
	c0,35.358,9.526,64.441,21.735,67.938c0,0-7.117,54.255,1.333,110.669c0,0,12.791,70.803-52.759,70.803h-55.501"/>
<line fill="none" stroke="#000000" x1="391.621" y1="106.353" x2="340.689" y2="88.766"/>
<g>
	<circle fill="none" stroke="#000000" stroke-width="0.5" cx="569.766" cy="206.513" r="2.336"/>
	<g>
		<path fill="#EC2027" stroke="#000000" d="M569.719,205.039c-0.109-0.062-0.249-0.023-0.311,0.086l-1.02,1.783
			c-0.062,0.111-0.024,0.25,0.086,0.312l0,0c0.109,0.062,0.248,0.025,0.312-0.086l1.019-1.783
			C569.867,205.242,569.829,205.102,569.719,205.039L569.719,205.039z"/>
		<path fill="#EC2027" stroke="#000000" d="M571.059,205.804c-0.11-0.063-0.25-0.024-0.312,0.085l-1.02,1.785
			c-0.062,0.109-0.024,0.249,0.085,0.311l0,0c0.109,0.062,0.249,0.025,0.312-0.085l1.019-1.784
			C571.206,206.006,571.168,205.865,571.059,205.804L571.059,205.804z"/>
	</g>
</g>
<g>
	<circle fill="none" stroke="#000000" stroke-width="0.5" cx="603.461" cy="225.749" r="2.336"/>
	<g>
		<path fill="#EC2027" stroke="#000000" d="M603.413,224.275c-0.108-0.062-0.249-0.023-0.311,0.086l-1.02,1.784
			c-0.062,0.11-0.024,0.249,0.085,0.312l0,0c0.109,0.062,0.25,0.025,0.312-0.086l1.019-1.783
			C603.562,224.479,603.523,224.338,603.413,224.275L603.413,224.275z"/>
		<path fill="#EC2027" stroke="#000000" d="M604.753,225.04c-0.109-0.062-0.249-0.024-0.312,0.085l-1.02,1.785
			c-0.062,0.109-0.024,0.249,0.085,0.311l0,0c0.11,0.063,0.249,0.025,0.312-0.084l1.02-1.785
			C604.9,225.242,604.862,225.104,604.753,225.04L604.753,225.04z"/>
	</g>
</g>
<path fill="none" stroke="#000000" d="M413.092,314.537c0,0,8.679,82.223-42.711,82.223c-51.389,0-65.55,0.229-65.55,0.229"/>
<polygon fill="none" stroke="#000000" points="531.099,189.998 530.953,190.039 529.142,183.407 535.772,181.595 535.812,181.742 
	"/>
<path fill="none" stroke="#000000" d="M392.938,100.082"/>
<rect x="528.975" y="197.923" transform="matrix(0.8684 0.4958 -0.4958 0.8684 174.6011 -252.4767)" fill="none" stroke="#000000" width="68.119" height="9.669"/>
<line fill="none" stroke="#000000" x1="616.629" y1="227.788" x2="392.938" y2="100.082"/>
<polygon fill="none" stroke="#000000" points="592.84,269.199 616.629,227.788 595.01,215.445 569.55,260.041 "/>
<polygon fill="none" stroke="#000000" points="595.01,215.445 616.629,227.788 614.422,231.656 607.789,233.467 590.392,223.535 "/>
<line fill="none" stroke="#000000" x1="569.55" y1="260.041" x2="411.529" y2="201.698"/>
<path fill="none" stroke="#000000" d="M324.244,71.408c9.02,0,16.33,7.465,16.33,16.673c0,1.601-0.221,3.148-0.633,4.614
	l-12.043,40.38l-15.074-9.821l20.418-41.62c0.25-0.712,0.385-1.465,0.385-2.244c0-4.409-4.303-7.982-9.611-7.982
	c-0.308,0-0.611,0.012-0.912,0.035l-0.743,0.051c-3.812,0.849-8.582,1.354-13.761,1.354s-9.949-0.505-13.762-1.354l-0.857-0.051
	c-0.3-0.023-0.604-0.035-0.912-0.035c-5.308,0-9.611,3.574-9.611,7.982c0,0.779,0.135,1.532,0.386,2.244l20.417,41.62l-15.074,9.821
	l-12.043-40.38c-0.412-1.466-0.633-3.014-0.633-4.614c0-9.208,7.312-16.673,16.331-16.673"/>
<path fill="none" stroke="#000000" d="M333.629,79.693c-1.296-0.359-2.682-0.553-4.123-0.553c-0.417,0-0.829,0.016-1.236,0.048
	l-1.007,0.068c-5.165,1.15-11.627,1.834-18.643,1.834c-7.017,0-13.479-0.685-18.644-1.834l-1.162-0.068
	c-0.407-0.032-0.819-0.048-1.236-0.048c-1.43,0-2.806,0.192-4.093,0.545"/>
<rect x="299.661" y="87.602" fill="none" stroke="#000000" stroke-miterlimit="10" width="18.498" height="8.246"/>
<g>
	<g>
		<line fill="none" stroke="#ED1C24" x1="214.643" y1="201.755" x2="402.258" y2="201.755"/>
		<g>
			<polygon fill="#ED1C24" points="216.624,204.66 205.783,201.755 216.624,198.85 			"/>
		</g>
		<g>
			<polygon fill="#ED1C24" points="400.275,204.66 411.117,201.755 400.275,198.85 			"/>
		</g>
	</g>
</g>
<g>
	<g>
		<line fill="none" stroke="#ED1C24" x1="236.021" y1="100.698" x2="380.199" y2="100.698"/>
		<g>
			<polygon fill="#ED1C24" points="238.003,103.604 227.161,100.698 238.003,97.793 			"/>
		</g>
		<g>
			<polygon fill="#ED1C24" points="378.218,103.604 389.059,100.698 378.218,97.793 			"/>
		</g>
	</g>
</g>
<g>
	<g>
		<line fill="none" stroke="#ED1C24" x1="35.111" y1="272.359" x2="197.776" y2="213.703"/>
		<g>
			<polygon fill="#ED1C24" points="37.961,274.42 26.777,275.365 35.99,268.955 			"/>
		</g>
		<g>
			<polygon fill="#ED1C24" points="196.898,217.108 206.11,210.698 194.927,211.643 			"/>
		</g>
	</g>
</g>
<g>
	<g>
		<line fill="none" stroke="#ED1C24" x1="294.777" y1="90.225" x2="294.777" y2="387.172"/>
		<g>
			<polygon fill="#ED1C24" points="291.872,92.206 294.777,81.365 297.683,92.206 			"/>
		</g>
		<g>
			<polygon fill="#ED1C24" points="291.872,385.191 294.777,396.031 297.683,385.191 			"/>
		</g>
	</g>
</g>
<g>
	<circle fill="#ED1C24" cx="257.021" cy="100.698" r="6.96"/>
	<text transform="matrix(1 0 0 1 253.9424 104.9814)" fill="#FFFFFF" font-family="'TradeGothic-BoldTwo'" font-size="12">1</text>
</g>
<g>
	<circle fill="#ED1C24" cx="294.777" cy="164.335" r="6.96"/>
	<text transform="matrix(1 0 0 1 291.6992 168.6191)" fill="#FFFFFF" font-family="'TradeGothic-BoldTwo'" font-size="12">2</text>
</g>
<g>
	<circle fill="#ED1C24" cx="237.01" cy="201.755" r="6.96"/>
	<text transform="matrix(1 0 0 1 233.9321 206.0371)" fill="#FFFFFF" font-family="'TradeGothic-BoldTwo'" font-size="12">3</text>
</g>
<g>
	<circle fill="#ED1C24" cx="116.718" cy="243.316" r="6.96"/>
	<text transform="matrix(1 0 0 1 113.6401 247.5996)" fill="#FFFFFF" font-family="'TradeGothic-BoldTwo'" font-size="12">4</text>
</g>
</svg>
