<?xml version="1.0" encoding="utf-8"?>
<!-- Generator: Adobe Illustrator 16.0.0, SVG Export Plug-In . SVG Version: 6.00 Build 0)  -->
<!DOCTYPE svg PUBLIC "-//W3C//DTD SVG 1.1//EN" "http://www.w3.org/Graphics/SVG/1.1/DTD/svg11.dtd">
<svg version="1.1" id="RODENGRAY_x5F_LOGO" xmlns="http://www.w3.org/2000/svg" xmlns:xlink="http://www.w3.org/1999/xlink" x="0px"
	 y="0px" width="907.088px" height="107.717px" viewBox="0 0 907.088 107.717" enable-background="new 0 0 907.088 107.717"
	 xml:space="preserve">
<path id="RG_x5F_LOGO" d="M406.325,25.174l0.002,79.592h-9.8V1.017h5.038L476.672,81.2V2.946h8.599l-0.008,103.75h-4.002
	L406.325,25.174z M632.993,21.027h1.771l3.402-11.412c0,0-3.802-1.825-6.073-2.818c-2.262-0.987-4.924-1.927-7.944-2.823
	c-3.007-0.879-6.484-1.6-10.38-2.145c-3.921-0.541-8.385-0.812-13.428-0.812c-8.705,0-16.651,1.186-23.826,3.554
	c-7.186,2.369-13.281,5.832-18.329,10.377c-5.04,4.545-8.952,10.107-11.719,16.677c-2.774,6.572-4.147,14.056-4.147,22.447
	c0,8.696,1.326,16.366,3.997,22.987c2.67,6.614,6.48,12.158,11.438,16.606c4.928,4.436,10.941,7.711,18.029,9.835
	c7.052,2.14,15.004,3.195,23.811,3.195c2.881,0,6.062-0.212,9.565-0.671c3.512-0.436,7.026-0.938,10.546-1.479
	c3.51-0.536,6.823-1.242,9.935-2.067c3.12-0.848,5.714-1.645,7.798-2.447c0-1.983,0-42.095,0-42.095h-12.607
	c0,0,0.092,35.273,0.002,38.24c-1.304,0.791-2.857,1.474-4.688,2.068c-1.827,0.601-3.81,1.097-5.938,1.489
	c-2.138,0.389-4.335,0.689-6.599,0.891c-2.272,0.21-4.444,0.287-6.532,0.287c-6.924,0-13.127-1.081-18.625-3.262
	c-5.491-2.16-10.149-5.25-13.95-9.255c-3.806-4.003-6.688-8.915-8.685-14.748c-1.981-5.837-2.96-12.352-2.96-19.574
	c0-8.192,1.102-15.282,3.321-21.262c2.23-5.98,5.295-10.918,9.216-14.814c3.912-3.909,8.507-6.8,13.81-8.685
	c5.271-1.874,10.994-2.809,17.139-2.809c3.752,0,7.283,0.418,10.609,1.256c3.309,0.846,6.329,1.929,9.045,3.263
	c2.724,1.333,5.203,2.892,7.427,4.673C629.642,17.465,631.501,19.251,632.993,21.027z M787.328,1.017h-2.818
	c-7.726,17.687-46.46,103.749-46.46,103.749h8.88l16.506-39.281h37.545l15.287,39.281h15.731
	C831.999,104.766,789.685,6.746,787.328,1.017z M782.928,19.015l15.979,39.655h-32.654L782.928,19.015z M856.162,63.114
	c0,8.009,0,41.652,0,41.652h12.187l-0.002-43.228l35.902-58.592h-9.45L864.631,54.22L836.444,2.946h-16.337
	C820.107,2.946,855.177,61.438,856.162,63.114z M298.89,53.485v0.746c0,48.275-48.797,50.537-51.86,50.537
	c-3.068,0-42.019,0-42.019,0V2.945c0,0,38.95-0.001,42.019-0.001C250.093,2.944,298.89,5.207,298.89,53.485z M284.278,53.486
	c0-42.715-33.446-43.966-39.681-43.966c-3.056,0-25.304,0.004-25.304,0.004v88.669c0,0,22.248,0.003,25.304,0.003
	c6.235,0,39.681-1.252,39.681-43.967V53.486z M78.765,54.075c0,8.409,1.362,15.895,4.088,22.458
	c2.719,6.573,6.53,12.132,11.422,16.679c4.9,4.553,10.763,7.936,17.586,10.161c6.825,2.225,14.3,3.326,22.412,3.326
	c8.214,0,15.728-1.102,22.559-3.326c6.824-2.226,12.691-5.608,17.585-10.161c4.898-4.547,8.703-10.105,11.425-16.679
	c2.719-6.563,4.082-14.049,4.082-22.458c0-8.392-1.362-15.876-4.082-22.447c-2.722-6.57-6.527-12.132-11.425-16.678
	c-4.894-4.543-10.761-8.006-17.585-10.375c-6.831-2.369-14.345-3.551-22.559-3.551c-8.112,0-15.587,1.182-22.412,3.551
	c-6.824,2.37-12.687,5.832-17.586,10.375c-4.892,4.546-8.703,10.108-11.422,16.678C80.127,38.198,78.765,45.683,78.765,54.075z
	 M175.385,54.075c0,8.206-1.041,15.293-3.122,21.274c-2.071,5.98-4.975,10.922-8.679,14.827c-3.71,3.901-8.062,6.792-13.062,8.67
	c-4.995,1.872-10.413,2.813-16.25,2.813c-5.737,0-11.11-0.941-16.105-2.813c-4.996-1.878-9.344-4.769-13.058-8.67
	c-3.714-3.905-6.609-8.847-8.68-14.827c-2.077-5.98-3.116-13.068-3.116-21.274c0-8.191,1.039-15.283,3.116-21.263
	c2.071-5.976,4.966-10.904,8.68-14.814c3.714-3.908,8.062-6.8,13.058-8.681c4.995-1.874,10.368-2.813,16.105-2.813
	c5.837,0,11.254,0.939,16.25,2.813c4.999,1.881,9.351,4.773,13.062,8.681c3.704,3.91,6.607,8.838,8.679,14.814
	C174.344,38.792,175.385,45.884,175.385,54.075z M313.051,104.766h64.125v-6.527c0,0-47.358,0.005-50.618,0.005
	c-0.098-1.875-0.001-43.721-0.001-43.721l50.619-0.005v-6.223l-50.619,0.002l0.001-38.389l50.614-0.002V2.944h-64.121V104.766z
	 M77.787,104.766H61.384L28.159,56.01H16.188l0.001,48.758H2.836V56.01V2.947c0,0,34.688,0,35.443,0
	c5.167,0,29.21,0.693,29.21,23.641c0,15.838-14.236,24.212-25.7,27.273L77.787,104.766z M37.992,48.742
	c9.71-2.456,16.474-9.477,16.474-22.158c0-12.846-10.552-17.391-20.754-17.391c-3.427,0-17.572-0.002-17.572-0.002v10.224v10.445
	v19.91c0,0,4.888-0.001,8.958-0.002c1.645,0,3.165,0,4.148,0C32.339,49.769,35.28,49.432,37.992,48.742z M731.842,104.764h-16.403
	l-33.225-48.756h-11.969v48.758h-13.344V56.008V2.944c0,0,34.667,0,35.426,0c5.183,0,29.213,0.688,29.213,23.641
	c0,15.838-14.229,24.197-25.696,27.273L731.842,104.764z M692.039,48.738c9.718-2.456,16.48-9.477,16.48-22.157
	c0-12.844-10.556-17.391-20.752-17.391c-3.429,0-17.568-0.002-17.568-0.002v10.225v10.445v19.908c0,0,4.877,0,8.945-0.001
	c1.664-0.001,3.175-0.001,4.153-0.001C686.391,49.764,689.335,49.427,692.039,48.738z"/>
<g>
</g>
<g>
</g>
<g>
</g>
<g>
</g>
<g>
</g>
<g>
</g>
</svg>
