<svg xmlns="http://www.w3.org/2000/svg" viewBox="0 0 18.35 12.2"><path d="M9.72,2.75A4.54,4.54,0,0,1,10.27.58H1.08A1.08,1.08,0,0,0,0,1.66L0,2.75H9.72Z"/><path fill="#231f20" d="M17.27,6.19h-.6V2.75a2.75,2.75,0,1,0-5.5,0V6.19h-.6A1.08,1.08,0,0,0,9.49,7.27v3.84a1.08,1.08,0,0,0,1.08,1.08h6.7a1.08,1.08,0,0,0,1.08-1.08V7.27A1.08,1.08,0,0,0,17.27,6.19ZM14.61,9.91a.62.62,0,1,1-1.24,0V8.48a.62.62,0,1,1,1.24,0Zm.51-3.72h-2.4V2.75a1.2,1.2,0,0,1,2.4,0Z"/><path d="M8,11.12V6.56A1.81,1.81,0,0,1,9.72,4.64v0H0L0,10a1.08,1.08,0,0,0,1.08,1.08H8Z"/></svg>